0
SECTION
2
HEADER
9
$INSUNITS
70
4
9
$ACADVER
1
AC1014
9
$HANDSEED
5
FFFF
0
ENDSEC
0
SECTION
2
TABLES
0
TABLE
2
VPORT
5
8
100
AcDbSymbolTable
0
ENDTAB
0
TABLE
2
LTYPE
5
5
100
AcDbSymbolTable
0
LTYPE
5
14
100
AcDbSymbolTableRecord
100
AcDbLinetypeTableRecord
2
BYBLOCK
70
0
0
LTYPE
5
15
100
AcDbSymbolTableRecord
100
AcDbLinetypeTableRecord
2
BYLAYER
70
0
0
ENDTAB
0
TABLE
2
LAYER
5
2
100
AcDbSymbolTable
70
2
0
LAYER
5
50
100
AcDbSymbolTableRecord
100
AcDbLayerTableRecord
2
0
70
0
6
CONTINUOUS
0
ENDTAB
0
TABLE
2
STYLE
5
3
100
AcDbSymbolTable
70
1
0
STYLE
5
11
100
AcDbSymbolTableRecord
100
AcDbTextStyleTableRecord
2
STANDARD
70
0
0
ENDTAB
0
TABLE
2
VIEW
5
6
100
AcDbSymbolTable
70
0
0
ENDTAB
0
TABLE
2
UCS
5
7
100
AcDbSymbolTable
70
0
0
ENDTAB
0
TABLE
2
APPID
5
9
100
AcDbSymbolTable
70
2
0
APPID
5
12
100
AcDbSymbolTableRecord
100
AcDbRegAppTableRecord
2
ACAD
70
0
0
ENDTAB
0
TABLE
2
DIMSTYLE
5
A
100
AcDbSymbolTable
70
1
0
ENDTAB
0
TABLE
2
BLOCK_RECORD
5
1
100
AcDbSymbolTable
70
1
0
BLOCK_RECORD
5
1F
100
AcDbSymbolTableRecord
100
AcDbBlockTableRecord
2
*MODEL_SPACE
0
BLOCK_RECORD
5
1B
100
AcDbSymbolTableRecord
100
AcDbBlockTableRecord
2
*PAPER_SPACE
0
ENDTAB
0
ENDSEC
0
SECTION
2
BLOCKS
0
BLOCK
5
20
100
AcDbEntity
100
AcDbBlockBegin
2
*MODEL_SPACE
0
ENDBLK
5
21
100
AcDbEntity
100
AcDbBlockEnd
0
BLOCK
5
1C
100
AcDbEntity
100
AcDbBlockBegin
2
*PAPER_SPACE
0
ENDBLK
5
1D
100
AcDbEntity
100
AcDbBlockEnd
0
ENDSEC
0
SECTION
2
ENTITIES
0
LINE
5
100
100
AcDbEntity
8
0
100
AcDbLine
10
0
20
0
30
0
11
-255
21
0
31
0
0
LINE
5
101
100
AcDbEntity
8
0
100
AcDbLine
10
-255
20
0
30
0
11
-255
21
-300
31
0
0
LINE
5
102
100
AcDbEntity
8
0
100
AcDbLine
10
-255
20
-300
30
0
11
0
21
-300
31
0
0
LINE
5
103
100
AcDbEntity
8
0
100
AcDbLine
10
0
20
-300
30
0
11
0
21
0
31
0
0
LINE
5
104
100
AcDbEntity
8
0
100
AcDbLine
10
0
20
-300
30
0
11
-40
21
-270
31
0
0
LINE
5
105
100
AcDbEntity
8
0
100
AcDbLine
10
-40
20
-270
30
0
11
-80
21
-300
31
0
0
LINE
5
106
100
AcDbEntity
8
0
100
AcDbLine
10
-80
20
-300
30
0
11
-120
21
-270
31
0
0
LINE
5
107
100
AcDbEntity
8
0
100
AcDbLine
10
-120
20
-270
30
0
11
-159.99999999999997
21
-300
31
0
0
LINE
5
108
100
AcDbEntity
8
0
100
AcDbLine
10
-40
20
-270
30
0
11
-40
21
-220
31
0
0
LINE
5
109
100
AcDbEntity
8
0
100
AcDbLine
10
-40
20
-220
30
0
11
-80
21
-250
31
0
0
LINE
5
110
100
AcDbEntity
8
0
100
AcDbLine
10
-80
20
-250
30
0
11
-80
21
-300
31
0
0
LINE
5
111
100
AcDbEntity
8
0
100
AcDbLine
10
-80
20
-250
30
0
11
-120
21
-220
31
0
0
LINE
5
112
100
AcDbEntity
8
0
100
AcDbLine
10
-120
20
-220
30
0
11
-120
21
-270
31
0
0
LINE
5
113
100
AcDbEntity
8
0
100
AcDbLine
10
-159.99999999999997
20
-300
30
0
11
-159.99999999999997
21
-250
31
0
0
LINE
5
114
100
AcDbEntity
8
0
100
AcDbLine
10
-159.99999999999997
20
-250
30
0
11
-120
21
-220
31
0
0
LINE
5
115
100
AcDbEntity
8
0
100
AcDbLine
10
-40
20
-220
30
0
11
0
21
-250
31
0
0
LINE
5
116
100
AcDbEntity
8
0
100
AcDbLine
10
-40
20
-220
30
0
11
0
21
-190
31
0
0
LINE
5
117
100
AcDbEntity
8
0
100
AcDbLine
10
-40
20
-220
30
0
11
-79.999999999999986
21
-190
31
0
0
LINE
5
118
100
AcDbEntity
8
0
100
AcDbLine
10
-79.999999999999986
20
-190
30
0
11
-120
21
-220
31
0
0
LINE
5
119
100
AcDbEntity
8
0
100
AcDbLine
10
-120
20
-220
30
0
11
-160
21
-190
31
0
0
LINE
5
120
100
AcDbEntity
8
0
100
AcDbLine
10
-160
20
-190
30
0
11
-159.99999999999997
21
-250
31
0
0
LINE
5
121
100
AcDbEntity
8
0
100
AcDbLine
10
-160
20
-190
30
0
11
-160
21
-140
31
0
0
LINE
5
122
100
AcDbEntity
8
0
100
AcDbLine
10
-160
20
-140
30
0
11
-120
21
-170
31
0
0
LINE
5
123
100
AcDbEntity
8
0
100
AcDbLine
10
-120
20
-170
30
0
11
-80
21
-140
31
0
0
LINE
5
124
100
AcDbEntity
8
0
100
AcDbLine
10
-80
20
-140
30
0
11
-79.999999999999986
21
-190
31
0
0
LINE
5
125
100
AcDbEntity
8
0
100
AcDbLine
10
-80
20
-140
30
0
11
-40
21
-170
31
0
0
LINE
5
126
100
AcDbEntity
8
0
100
AcDbLine
10
-40
20
-170
30
0
11
0
21
-140
31
0
0
LINE
5
127
100
AcDbEntity
8
0
100
AcDbLine
10
-120
20
-170
30
0
11
-120
21
-220
31
0
0
LINE
5
128
100
AcDbEntity
8
0
100
AcDbLine
10
-40
20
-170
30
0
11
-40
21
-220
31
0
0
LINE
5
129
100
AcDbEntity
8
0
100
AcDbLine
10
0
20
-140
30
0
11
-255
21
-140
31
0
0
LWPOLYLINE
5
130
100
AcDbEntity
8
0
100
AcDbPolyline
90
4
70
1
43
0.0
10
-160
20
-140
10
-180
20
-140
10
-180
20
-200
10
-160
20
-200
0
LWPOLYLINE
5
131
100
AcDbEntity
8
0
100
AcDbPolyline
90
4
70
1
43
0.0
10
-180
20
-200
10
-160
20
-200
10
-160
20
-260
10
-180
20
-260
0
LINE
5
132
100
AcDbEntity
8
0
100
AcDbLine
10
-180
20
-260
30
0
11
-159.99999999999997
21
-260
31
0
0
LINE
5
133
100
AcDbEntity
8
0
100
AcDbLine
10
-159.99999999999997
20
-260
30
0
11
-159.99999999999997
21
-300
31
0
0
LINE
5
134
100
AcDbEntity
8
0
100
AcDbLine
10
-159.99999999999997
20
-300
30
0
11
-180
21
-300
31
0
0
LINE
5
135
100
AcDbEntity
8
0
100
AcDbLine
10
-180
20
-300
30
0
11
-180
21
-260
31
0
0
LINE
5
136
100
AcDbEntity
8
0
100
AcDbLine
10
-180
20
-170
30
0
11
-200
21
-170
31
0
0
LINE
5
137
100
AcDbEntity
8
0
100
AcDbLine
10
-180
20
-230
30
0
11
-200
21
-230
31
0
0
LINE
5
138
100
AcDbEntity
8
0
100
AcDbLine
10
-200
20
-230
30
0
11
-200
21
-140
31
0
0
LINE
5
139
100
AcDbEntity
8
0
100
AcDbLine
10
-180
20
-290
30
0
11
-200
21
-290
31
0
0
LINE
5
140
100
AcDbEntity
8
0
100
AcDbLine
10
-200
20
-290
30
0
11
-200
21
-230
31
0
0
LINE
5
141
100
AcDbEntity
8
0
100
AcDbLine
10
-200
20
-290
30
0
11
-200
21
-300
31
0
0
LINE
5
142
100
AcDbEntity
8
0
100
AcDbLine
10
-200
20
-200
30
0
11
-220
21
-200
31
0
0
LINE
5
143
100
AcDbEntity
8
0
100
AcDbLine
10
-220
20
-200
30
0
11
-220
21
-140
31
0
0
LINE
5
144
100
AcDbEntity
8
0
100
AcDbLine
10
-220
20
-200
30
0
11
-220
21
-260
31
0
0
LINE
5
145
100
AcDbEntity
8
0
100
AcDbLine
10
-200
20
-260
30
0
11
-220
21
-260
31
0
0
LINE
5
146
100
AcDbEntity
8
0
100
AcDbLine
10
-220
20
-260
30
0
11
-220
21
-300
31
0
0
LINE
5
147
100
AcDbEntity
8
0
100
AcDbLine
10
-240
20
-300
30
0
11
-240
21
-140
31
0
0
LINE
5
148
100
AcDbEntity
8
0
100
AcDbLine
10
-220
20
-170
30
0
11
-240
21
-170
31
0
0
LINE
5
149
100
AcDbEntity
8
0
100
AcDbLine
10
-220
20
-230
30
0
11
-240
21
-230
31
0
0
LINE
5
150
100
AcDbEntity
8
0
100
AcDbLine
10
-220
20
-290
30
0
11
-240
21
-290
31
0
0
LINE
5
151
100
AcDbEntity
8
0
100
AcDbLine
10
-240
20
-260
30
0
11
-255
21
-260
31
0
0
LINE
5
152
100
AcDbEntity
8
0
100
AcDbLine
10
-41.11058091899654
20
-21.59828957621243
30
0
11
-84.411851108218457
21
-46.59828957621243
31
0
0
LINE
5
153
100
AcDbEntity
8
0
100
AcDbLine
10
-84.411851108218457
20
-46.59828957621243
30
0
11
-84.411851108218457
21
-96.598289576212437
31
0
0
LINE
5
154
100
AcDbEntity
8
0
100
AcDbLine
10
-41.11058091899654
20
-121.59828957621244
30
0
11
-84.411851108218457
21
-96.598289576212437
31
0
0
LINE
5
155
100
AcDbEntity
8
0
100
AcDbLine
10
-41.11058091899654
20
-121.59828957621244
30
0
11
2.19068927022537
21
-96.598289576212437
31
0
0
LINE
5
156
100
AcDbEntity
8
0
100
AcDbLine
10
2.19068927022537
20
-46.59828957621243
30
0
11
2.19068927022537
21
-96.598289576212437
31
0
0
LINE
5
157
100
AcDbEntity
8
0
100
AcDbLine
10
-41.11058091899654
20
-21.59828957621243
30
0
11
2.19068927022537
21
-46.59828957621243
31
0
0
LINE
5
158
100
AcDbEntity
8
0
100
AcDbLine
10
-127.71312129744035
20
-121.59828957621244
30
0
11
-171.01439148666228
21
-96.598289576212437
31
0
0
LINE
5
159
100
AcDbEntity
8
0
100
AcDbLine
10
-127.71312129744035
20
-121.59828957621244
30
0
11
-84.411851108218457
21
-96.598289576212437
31
0
0
LINE
5
160
100
AcDbEntity
8
0
100
AcDbLine
10
-127.71312129744035
20
-21.59828957621243
30
0
11
-171.01439148666228
21
-46.59828957621243
31
0
0
LINE
5
161
100
AcDbEntity
8
0
100
AcDbLine
10
-127.71312129744035
20
-21.59828957621243
30
0
11
-84.411851108218457
21
-46.59828957621243
31
0
0
LINE
5
162
100
AcDbEntity
8
0
100
AcDbLine
10
-214.31566167588417
20
-21.59828957621243
30
0
11
-171.01439148666228
21
-46.59828957621243
31
0
0
LINE
5
163
100
AcDbEntity
8
0
100
AcDbLine
10
-214.31566167588417
20
-21.59828957621243
30
0
11
-257.6169318651061
21
-46.59828957621243
31
0
0
LINE
5
164
100
AcDbEntity
8
0
100
AcDbLine
10
-214.31566167588417
20
-121.59828957621244
30
0
11
-257.6169318651061
21
-96.598289576212437
31
0
0
LINE
5
165
100
AcDbEntity
8
0
100
AcDbLine
10
-214.31566167588417
20
-121.59828957621244
30
0
11
-171.01439148666228
21
-96.598289576212437
31
0
0
LINE
5
166
100
AcDbEntity
8
0
100
AcDbLine
10
-257.6169318651061
20
-46.59828957621243
30
0
11
-257.6169318651061
21
-96.598289576212437
31
0
0
LINE
5
167
100
AcDbEntity
8
0
100
AcDbLine
10
-171.01439148666228
20
-46.59828957621243
30
0
11
-171.01439148666228
21
-96.598289576212437
31
0
0
LINE
5
168
100
AcDbEntity
8
0
100
AcDbLine
10
-214.31566167588417
20
-21.59828957621243
30
0
11
-214.31566167588417
21
-121.59828957621244
31
0
0
LINE
5
169
100
AcDbEntity
8
0
100
AcDbLine
10
-127.71312129744035
20
-21.59828957621243
30
0
11
-127.53293554895635
21
-121.7023198666038
31
0
0
LINE
5
170
100
AcDbEntity
8
0
100
AcDbLine
10
-41.11058091899654
20
-21.59828957621243
30
0
11
-41.11058091899654
21
-140
31
0
0
LINE
5
171
100
AcDbEntity
8
0
100
AcDbLine
10
-171.01439148666228
20
-96.598289576212437
30
0
11
-257.6169318651061
21
-46.59828957621243
31
0
0
LINE
5
172
100
AcDbEntity
8
0
100
AcDbLine
10
-257.6169318651061
20
-96.598289576212437
30
0
11
-171.01439148666228
21
-46.59828957621243
31
0
0
LINE
5
173
100
AcDbEntity
8
0
100
AcDbLine
10
-171.01439148666228
20
-46.59828957621243
30
0
11
-84.411851108218457
21
-96.598289576212437
31
0
0
LINE
5
174
100
AcDbEntity
8
0
100
AcDbLine
10
-171.01439148666228
20
-96.598289576212437
30
0
11
-84.411851108218457
21
-46.59828957621243
31
0
0
LINE
5
175
100
AcDbEntity
8
0
100
AcDbLine
10
-84.411851108218457
20
-96.598289576212437
30
0
11
2.19068927022537
21
-46.59828957621243
31
0
0
LINE
5
176
100
AcDbEntity
8
0
100
AcDbLine
10
2.19068927022537
20
-96.598289576212437
30
0
11
-84.411851108218457
21
-46.59828957621243
31
0
0
LINE
5
177
100
AcDbEntity
8
0
100
AcDbLine
10
-171.01439148666228
20
-96.598289576212437
30
0
11
-174.09936475068906
21
-98.379399720641118
31
0
0
LINE
5
178
100
AcDbEntity
8
0
100
AcDbLine
10
-214.31566167588417
20
-71.598289576212437
30
0
11
-228.74941840562482
21
-46.59828957621243
31
0
0
LINE
5
179
100
AcDbEntity
8
0
100
AcDbLine
10
-228.74941840562482
20
-46.59828957621243
30
0
11
-214.31566167588417
21
-71.598289576212437
31
0
0
LINE
5
180
100
AcDbEntity
8
0
100
AcDbLine
10
-214.31566167588417
20
-71.598289576212437
30
0
11
-199.88190494614355
21
-46.59828957621243
31
0
0
LINE
5
181
100
AcDbEntity
8
0
100
AcDbLine
10
-199.88190494614355
20
-46.59828957621243
30
0
11
-228.74941840562482
21
-96.598289576212437
31
0
0
LINE
5
182
100
AcDbEntity
8
0
100
AcDbLine
10
-257.6169318651061
20
-46.59828957621243
30
0
11
-228.74941840562482
21
-46.59828957621243
31
0
0
LINE
5
183
100
AcDbEntity
8
0
100
AcDbLine
10
-199.88190494614355
20
-46.59828957621243
30
0
11
-171.01439148666228
21
-46.59828957621243
31
0
0
LINE
5
184
100
AcDbEntity
8
0
100
AcDbLine
10
-214.31566167588417
20
-21.59828957621243
30
0
11
-199.88190494614355
21
-46.59828957621243
31
0
0
LINE
5
185
100
AcDbEntity
8
0
100
AcDbLine
10
-185.4481482164029
20
-71.598289576212437
30
0
11
-171.01439148666228
21
-96.598289576212437
31
0
0
LINE
5
186
100
AcDbEntity
8
0
100
AcDbLine
10
-171.01439148666228
20
-46.59828957621243
30
0
11
-185.4481482164029
21
-71.598289576212437
31
0
0
LINE
5
187
100
AcDbEntity
8
0
100
AcDbLine
10
-199.88190494614355
20
-96.598289576212437
30
0
11
-214.31566167588417
21
-121.59828957621244
31
0
0
LINE
5
188
100
AcDbEntity
8
0
100
AcDbLine
10
-171.01439148666228
20
-96.598289576212437
30
0
11
-199.88190494614355
21
-96.598289576212437
31
0
0
LINE
5
189
100
AcDbEntity
8
0
100
AcDbLine
10
-228.74941840562482
20
-96.598289576212437
30
0
11
-257.6169318651061
21
-96.598289576212437
31
0
0
LINE
5
190
100
AcDbEntity
8
0
100
AcDbLine
10
-214.31566167588417
20
-121.59828957621244
30
0
11
-228.74941840562482
21
-96.598289576212437
31
0
0
LINE
5
191
100
AcDbEntity
8
0
100
AcDbLine
10
-243.18317513536545
20
-71.598289576212437
30
0
11
-257.6169318651061
21
-46.59828957621243
31
0
0
LINE
5
192
100
AcDbEntity
8
0
100
AcDbLine
10
-214.31566167588417
20
-21.59828957621243
30
0
11
-228.74941840562482
21
-46.59828957621243
31
0
0
LINE
5
193
100
AcDbEntity
8
0
100
AcDbLine
10
-243.18317513536545
20
-71.598289576212437
30
0
11
-257.6169318651061
21
-96.598289576212437
31
0
0
LINE
5
194
100
AcDbEntity
8
0
100
AcDbLine
10
-257.6169318651061
20
-71.598289576212437
30
0
11
-255
21
-71.598289576212451
31
0
0
LINE
5
195
100
AcDbEntity
8
0
100
AcDbLine
10
-243.18317513536545
20
-71.598289576212437
30
0
11
-214.31566167588417
21
-71.598289576212437
31
0
0
LINE
5
196
100
AcDbEntity
8
0
100
AcDbLine
10
-127.71312129744035
20
-121.59828957621244
30
0
11
-171.01439148666228
21
-96.598289576212437
31
0
0
LINE
5
197
100
AcDbEntity
8
0
100
AcDbLine
10
-142.146878027181
20
-96.598289576212437
30
0
11
-127.71312129744035
21
-121.59828957621244
31
0
0
LINE
5
198
100
AcDbEntity
8
0
100
AcDbLine
10
-127.71312129744035
20
-121.59828957621244
30
0
11
-113.27936456769973
21
-96.598289576212437
31
0
0
LINE
5
199
100
AcDbEntity
8
0
100
AcDbLine
10
-127.71312129744035
20
-121.59828957621244
30
0
11
-84.411851108218457
21
-96.598289576212437
31
0
0
LINE
5
200
100
AcDbEntity
8
0
100
AcDbLine
10
-113.27936456769973
20
-96.598289576212437
30
0
11
-84.411851108218457
21
-96.598289576212437
31
0
0
LINE
5
201
100
AcDbEntity
8
0
100
AcDbLine
10
-84.411851108218457
20
-96.598289576212437
30
0
11
-171.01439148666228
21
-46.59828957621243
31
0
0
LINE
5
202
100
AcDbEntity
8
0
100
AcDbLine
10
-98.845607837959079
20
-71.598289576212437
30
0
11
-84.411851108218457
21
-96.598289576212437
31
0
0
LINE
5
203
100
AcDbEntity
8
0
100
AcDbLine
10
-98.845607837959079
20
-71.598289576212437
30
0
11
-127.71312129744035
21
-71.598289576212437
31
0
0
LINE
5
204
100
AcDbEntity
8
0
100
AcDbLine
10
-142.146878027181
20
-46.59828957621243
30
0
11
-113.27936456769973
21
-96.598289576212437
31
0
0
LINE
5
205
100
AcDbEntity
8
0
100
AcDbLine
10
-127.71312129744035
20
-21.59828957621243
30
0
11
-127.71312129744035
21
-140
31
0
0
LINE
5
206
100
AcDbEntity
8
0
100
AcDbLine
10
-142.146878027181
20
-96.598289576212437
30
0
11
-113.27936456769973
21
-46.59828957621243
31
0
0
LINE
5
207
100
AcDbEntity
8
0
100
AcDbLine
10
-171.01439148666228
20
-96.598289576212437
30
0
11
-84.411851108218457
21
-46.59828957621243
31
0
0
LINE
5
208
100
AcDbEntity
8
0
100
AcDbLine
10
-156.58063475692163
20
-71.598289576212437
30
0
11
-171.01439148666228
21
-96.598289576212437
31
0
0
LINE
5
209
100
AcDbEntity
8
0
100
AcDbLine
10
-171.01439148666228
20
-46.59828957621243
30
0
11
-156.58063475692163
21
-71.598289576212437
31
0
0
LINE
5
210
100
AcDbEntity
8
0
100
AcDbLine
10
-142.146878027181
20
-46.59828957621243
30
0
11
-171.01439148666228
21
-46.59828957621243
31
0
0
LINE
5
211
100
AcDbEntity
8
0
100
AcDbLine
10
-127.71312129744035
20
-21.59828957621243
30
0
11
-142.146878027181
21
-46.59828957621243
31
0
0
LINE
5
212
100
AcDbEntity
8
0
100
AcDbLine
10
-127.71312129744035
20
-21.59828957621243
30
0
11
-113.27936456769973
21
-46.59828957621243
31
0
0
LINE
5
213
100
AcDbEntity
8
0
100
AcDbLine
10
-84.411851108218457
20
-46.59828957621243
30
0
11
-113.27936456769973
21
-46.59828957621243
31
0
0
LINE
5
214
100
AcDbEntity
8
0
100
AcDbLine
10
-98.845607837959079
20
-71.598289576212437
30
0
11
-84.411851108218457
21
-46.59828957621243
31
0
0
LINE
5
215
100
AcDbEntity
8
0
100
AcDbLine
10
-185.4481482164029
20
-71.598289576212437
30
0
11
-214.31566167588417
21
-71.598289576212437
31
0
0
LINE
5
216
100
AcDbEntity
8
0
100
AcDbLine
10
-214.31566167588417
20
-71.598289576212437
30
0
11
-243.18317513536545
21
-71.598289576212437
31
0
0
LINE
5
217
100
AcDbEntity
8
0
100
AcDbLine
10
-255
20
-71.598289576212451
30
0
11
-257.6169318651061
21
-71.598289576212437
31
0
0
LINE
5
218
100
AcDbEntity
8
0
100
AcDbLine
10
-142.146878027181
20
-96.598289576212437
30
0
11
-171.01439148666228
21
-96.598289576212437
31
0
0
LINE
5
219
100
AcDbEntity
8
0
100
AcDbLine
10
-156.58063475692163
20
-71.598289576212437
30
0
11
-98.845607837959079
21
-71.598289576212437
31
0
0
LINE
5
220
100
AcDbEntity
8
0
100
AcDbLine
10
-87.028782973324539
20
-71.598289576212437
30
0
11
2.19068927022537
21
-71.598289576212437
31
0
0
LINE
5
221
100
AcDbEntity
8
0
100
AcDbLine
10
-84.411851108218457
20
-46.59828957621243
30
0
11
-55.544337648737176
21
-46.59828957621243
31
0
0
LINE
5
222
100
AcDbEntity
8
0
100
AcDbLine
10
-41.11058091899654
20
-21.59828957621243
30
0
11
-55.544337648737176
21
-46.59828957621243
31
0
0
LINE
5
223
100
AcDbEntity
8
0
100
AcDbLine
10
-41.11058091899654
20
-21.59828957621243
30
0
11
-26.676824189255903
21
-46.59828957621243
31
0
0
LINE
5
224
100
AcDbEntity
8
0
100
AcDbLine
10
-26.676824189255903
20
-46.59828957621243
30
0
11
2.19068927022537
21
-46.59828957621243
31
0
0
LINE
5
225
100
AcDbEntity
8
0
100
AcDbLine
10
2.19068927022537
20
-46.59828957621243
30
0
11
-12.243067459515267
21
-71.598289576212437
31
0
0
LINE
5
226
100
AcDbEntity
8
0
100
AcDbLine
10
-12.243067459515267
20
-71.598289576212437
30
0
11
2.19068927022537
21
-96.598289576212437
31
0
0
LINE
5
227
100
AcDbEntity
8
0
100
AcDbLine
10
-26.676824189255903
20
-96.598289576212437
30
0
11
2.19068927022537
21
-96.598289576212437
31
0
0
LINE
5
228
100
AcDbEntity
8
0
100
AcDbLine
10
-26.676824189255903
20
-96.598289576212437
30
0
11
-41.11058091899654
21
-121.59828957621244
31
0
0
LINE
5
229
100
AcDbEntity
8
0
100
AcDbLine
10
-41.11058091899654
20
-121.59828957621244
30
0
11
-55.544337648737176
21
-96.598289576212437
31
0
0
LINE
5
230
100
AcDbEntity
8
0
100
AcDbLine
10
-55.544337648737176
20
-96.598289576212437
30
0
11
-84.411851108218457
21
-96.598289576212437
31
0
0
LINE
5
231
100
AcDbEntity
8
0
100
AcDbLine
10
-69.978094378477806
20
-71.598289576212437
30
0
11
-84.411851108218457
21
-96.598289576212437
31
0
0
LINE
5
232
100
AcDbEntity
8
0
100
AcDbLine
10
-69.978094378477806
20
-71.598289576212437
30
0
11
-84.411851108218457
21
-46.59828957621243
31
0
0
LINE
5
233
100
AcDbEntity
8
0
100
AcDbLine
10
-69.978094378477806
20
-71.598289576212437
30
0
11
-41.11058091899654
21
-71.598289576212437
31
0
0
LINE
5
234
100
AcDbEntity
8
0
100
AcDbLine
10
2.19068927022537
20
-96.598289576212437
30
0
11
-84.411851108218457
21
-46.59828957621243
31
0
0
LINE
5
235
100
AcDbEntity
8
0
100
AcDbLine
10
-26.676824189255903
20
-96.598289576212437
30
0
11
-55.544337648737176
21
-46.59828957621243
31
0
0
LINE
5
236
100
AcDbEntity
8
0
100
AcDbLine
10
-41.11058091899654
20
-21.59828957621243
30
0
11
-41.323702216436899
21
-140
31
0
0
LINE
5
237
100
AcDbEntity
8
0
100
AcDbLine
10
-26.676824189255903
20
-46.59828957621243
30
0
11
-55.544337648737176
21
-96.598289576212437
31
0
0
LINE
5
238
100
AcDbEntity
8
0
100
AcDbLine
10
2.19068927022537
20
-46.59828957621243
30
0
11
-84.411851108218457
21
-96.598289576212437
31
0
0
LINE
5
239
100
AcDbEntity
8
0
100
AcDbLine
10
-12.243067459515267
20
-71.598289576212437
30
0
11
-69.978094378477806
21
-71.598289576212437
31
0
0
LINE
5
240
100
AcDbEntity
8
0
100
AcDbLine
10
-214.31566167588417
20
-21.59828957621243
30
0
11
-257.6169318651061
21
-46.59828957621243
31
0
0
LINE
5
241
100
AcDbEntity
8
0
100
AcDbLine
10
-257.6169318651061
20
-46.59828957621243
30
0
11
-214.31566167588417
21
-21.59828957621243
31
0
0
LINE
5
242
100
AcDbEntity
8
0
100
AcDbLine
10
-171.01439148666228
20
-46.59828957621243
30
0
11
-214.31566167588417
21
-21.59828957621243
31
0
0
LINE
5
243
100
AcDbEntity
8
0
100
AcDbLine
10
-84.411851108218457
20
-46.59828957621243
30
0
11
-41.11058091899654
21
-21.59828957621243
31
0
0
LINE
5
244
100
AcDbEntity
8
0
100
AcDbLine
10
-171.01439148666228
20
-96.598289576212437
30
0
11
-214.31566167588417
21
-121.59828957621244
31
0
0
LINE
5
245
100
AcDbEntity
8
0
100
AcDbLine
10
-257.6169318651061
20
-96.598289576212437
30
0
11
-214.31566167588417
21
-121.59828957621244
31
0
0
LINE
5
246
100
AcDbEntity
8
0
100
AcDbLine
10
-84.411851108218457
20
-96.598289576212437
30
0
11
-127.95169559459683
21
-121.59828957621244
31
0
0
LINE
5
247
100
AcDbEntity
8
0
100
AcDbLine
10
-171.01439148666228
20
-96.598289576212437
30
0
11
-127.53293554895635
21
-121.7023198666038
31
0
0
LINE
5
248
100
AcDbEntity
8
0
100
AcDbLine
10
2.19068927022537
20
-96.598289576212437
30
0
11
-41.290766667480554
21
-121.7023198666038
31
0
0
LINE
5
249
100
AcDbEntity
8
0
100
AcDbLine
10
-84.411851108218457
20
-96.598289576212437
30
0
11
-41.11058091899654
21
-121.59828957621244
31
0
0
LINE
5
250
100
AcDbEntity
8
0
100
AcDbLine
10
-214.31566167588417
20
-121.59828957621244
30
0
11
-255
21
-121.59828957621244
31
0
0
LINE
5
251
100
AcDbEntity
8
0
100
AcDbLine
10
-255
20
-121.59828957621244
30
0
11
0
21
-121.59828957621244
31
0
0
LINE
5
252
100
AcDbEntity
8
0
100
AcDbLine
10
-87.028782973324539
20
-98.100897070552946
30
0
11
-87.028782973324539
21
-98.10917589298235
31
0
0
LINE
5
253
100
AcDbEntity
8
0
100
AcDbLine
10
-84.411851108218457
20
-46.59828957621243
30
0
11
-127.71312129744035
21
-21.59828957621243
31
0
0
LINE
5
254
100
AcDbEntity
8
0
100
AcDbLine
10
-171.01439148666228
20
-46.59828957621243
30
0
11
-127.71312129744035
21
-21.59828957621243
31
0
0
LINE
5
255
100
AcDbEntity
8
0
100
AcDbLine
10
2.19068927022537
20
-46.59828957621243
30
0
11
-41.11058091899654
21
-21.59828957621243
31
0
0
LINE
5
256
100
AcDbEntity
8
0
100
AcDbLine
10
-199.88190494614355
20
-96.598289576212437
30
0
11
-219.13091870636481
21
-63.25801974791672
31
0
0
LINE
5
257
100
AcDbEntity
8
0
100
AcDbLine
10
-214.31566167588417
20
-21.59828957621243
30
0
11
-255
21
-21.59828957621243
31
0
0
LINE
5
258
100
AcDbEntity
8
0
100
AcDbLine
10
0
20
-21.59828957621243
30
0
11
-214.31566167588417
21
-21.59828957621243
31
0
0
LINE
5
259
100
AcDbEntity
8
0
100
AcDbLine
10
-214.31566167588417
20
-121.59828957621244
30
0
11
-214.31566167588417
21
-140
31
0
0
LINE
5
260
100
AcDbEntity
8
0
100
AcDbLine
10
-214.31566167588417
20
-21.59828957621243
30
0
11
-214.31566167588417
21
0
31
0
0
LINE
5
261
100
AcDbEntity
8
0
100
AcDbLine
10
-127.71312129744035
20
-21.59828957621243
30
0
11
-127.5
21
0
31
0
0
LINE
5
262
100
AcDbEntity
8
0
100
AcDbLine
10
-41.11058091899654
20
-21.59828957621243
30
0
11
-41.11058091899654
21
0
31
0
0
ENDSEC
0
SECTION
2
OBJECTS
0
DICTIONARY
5
C
100
AcDbDictionary
3
ACAD_GROUP
350
D
3
ACAD_MLINESTYLE
350
17
0
DICTIONARY
5
D
100
AcDbDictionary
0
DICTIONARY
5
1A
330
C
100
AcDbDictionary
0
DICTIONARY
5
17
100
AcDbDictionary
0
ENDSEC
0
EOF
